<svg width="50" height="52" viewBox="0 0 50 52" fill="none" xmlns="http://www.w3.org/2000/svg">
<rect width="50" height="50" fill="url(#paint0_radial)"/>
<line y1="-1" x2="50.3601" y2="-1" transform="matrix(-0.733845 0.679317 -0.534074 -0.845438 36.9565 15.7895)" stroke="#7E7E7E" stroke-width="2"/>
<line y1="-1" x2="50.3601" y2="-1" transform="matrix(-0.733845 0.679317 -0.534074 -0.845438 36.9565 15.7895)" stroke="url(#paint1_linear)" stroke-width="2"/>
<path d="M18.7348 18.6477C18.6849 17.7339 19.6022 17.0928 20.2309 17.602L21.0698 18.2815C21.3153 18.4804 21.6415 18.5142 21.9374 18.3716L23.0063 17.8563C23.7083 17.518 24.3898 18.1931 24.195 19.0339L23.8421 20.5574C23.7675 20.8796 23.8226 21.2116 23.9917 21.458L24.7672 22.5883C25.2307 23.264 24.7628 24.325 23.9851 24.3613L23.0265 24.4061C22.6951 24.4216 22.3816 24.6407 22.2048 24.9805L21.6934 25.963C21.2786 26.7601 20.2856 26.7202 20.034 25.8963L19.6131 24.5182C19.5213 24.2178 19.3114 23.994 19.0435 23.9111L17.7771 23.5194C17.0783 23.3031 16.936 22.2511 17.5291 21.6844L18.4321 20.8214C18.6821 20.5825 18.821 20.2236 18.8015 19.8669L18.7348 18.6477Z" fill="#7E7E7E"/>
<path d="M18.7348 18.6477C18.6849 17.7339 19.6022 17.0928 20.2309 17.602L21.0698 18.2815C21.3153 18.4804 21.6415 18.5142 21.9374 18.3716L23.0063 17.8563C23.7083 17.518 24.3898 18.1931 24.195 19.0339L23.8421 20.5574C23.7675 20.8796 23.8226 21.2116 23.9917 21.458L24.7672 22.5883C25.2307 23.264 24.7628 24.325 23.9851 24.3613L23.0265 24.4061C22.6951 24.4216 22.3816 24.6407 22.2048 24.9805L21.6934 25.963C21.2786 26.7601 20.2856 26.7202 20.034 25.8963L19.6131 24.5182C19.5213 24.2178 19.3114 23.994 19.0435 23.9111L17.7771 23.5194C17.0783 23.3031 16.936 22.2511 17.5291 21.6844L18.4321 20.8214C18.6821 20.5825 18.821 20.2236 18.8015 19.8669L18.7348 18.6477Z" fill="url(#paint2_linear)"/>
<path d="M12.2131 8.12134C12.1631 7.20754 13.0804 6.56644 13.7092 7.07572L14.5481 7.7552C14.7936 7.95403 15.1198 7.9879 15.4157 7.84526L16.4846 7.33C17.1865 6.99164 17.8681 7.6668 17.6733 8.50758L17.3204 10.0311C17.2458 10.3533 17.3009 10.6852 17.47 10.9317L18.2454 12.062C18.709 12.7377 18.241 13.7987 17.4634 13.835L16.5048 13.8798C16.1733 13.8953 15.8599 14.1144 15.683 14.4541L15.1717 15.4366C14.7569 16.2338 13.7639 16.1939 13.5122 15.37L13.0913 13.9919C12.9996 13.6914 12.7896 13.4677 12.5218 13.3848L11.2554 12.993C10.5565 12.7768 10.4143 11.7247 11.0073 11.158L11.9104 10.2951C12.1604 10.0562 12.2993 9.69731 12.2798 9.34055L12.2131 8.12134Z" fill="#7E7E7E"/>
<path d="M12.2131 8.12134C12.1631 7.20754 13.0804 6.56644 13.7092 7.07572L14.5481 7.7552C14.7936 7.95403 15.1198 7.9879 15.4157 7.84526L16.4846 7.33C17.1865 6.99164 17.8681 7.6668 17.6733 8.50758L17.3204 10.0311C17.2458 10.3533 17.3009 10.6852 17.47 10.9317L18.2454 12.062C18.709 12.7377 18.241 13.7987 17.4634 13.835L16.5048 13.8798C16.1733 13.8953 15.8599 14.1144 15.683 14.4541L15.1717 15.4366C14.7569 16.2338 13.7639 16.1939 13.5122 15.37L13.0913 13.9919C12.9996 13.6914 12.7896 13.4677 12.5218 13.3848L11.2554 12.993C10.5565 12.7768 10.4143 11.7247 11.0073 11.158L11.9104 10.2951C12.1604 10.0562 12.2993 9.69731 12.2798 9.34055L12.2131 8.12134Z" fill="url(#paint3_linear)"/>
<path d="M20.9087 5.48976C20.8588 4.57596 21.7761 3.93486 22.4049 4.44414L23.2438 5.12362C23.4892 5.32246 23.8154 5.35632 24.1113 5.21369L25.1802 4.69843C25.8822 4.36007 26.5637 5.03522 26.369 5.87601L26.0161 7.39949C25.9414 7.72172 25.9965 8.05367 26.1656 8.30011L26.9411 9.43042C27.4047 10.1061 26.9367 11.1671 26.159 11.2034L25.2004 11.2482C24.869 11.2637 24.5555 11.4828 24.3787 11.8226L23.8674 12.8051C23.4525 13.6022 22.4595 13.5623 22.2079 12.7384L21.787 11.3603C21.6952 11.0599 21.4853 10.8361 21.2174 10.7532L19.9511 10.3615C19.2522 10.1452 19.1099 9.09317 19.703 8.52647L20.606 7.66352C20.856 7.42463 20.9949 7.06574 20.9754 6.70897L20.9087 5.48976Z" fill="#7E7E7E"/>
<path d="M20.9087 5.48976C20.8588 4.57596 21.7761 3.93486 22.4049 4.44414L23.2438 5.12362C23.4892 5.32246 23.8154 5.35632 24.1113 5.21369L25.1802 4.69843C25.8822 4.36007 26.5637 5.03522 26.369 5.87601L26.0161 7.39949C25.9414 7.72172 25.9965 8.05367 26.1656 8.30011L26.9411 9.43042C27.4047 10.1061 26.9367 11.1671 26.159 11.2034L25.2004 11.2482C24.869 11.2637 24.5555 11.4828 24.3787 11.8226L23.8674 12.8051C23.4525 13.6022 22.4595 13.5623 22.2079 12.7384L21.787 11.3603C21.6952 11.0599 21.4853 10.8361 21.2174 10.7532L19.9511 10.3615C19.2522 10.1452 19.1099 9.09317 19.703 8.52647L20.606 7.66352C20.856 7.42463 20.9949 7.06574 20.9754 6.70897L20.9087 5.48976Z" fill="url(#paint4_linear)"/>
<path d="M36.1261 41.0161C36.0762 40.1023 36.9935 39.4612 37.6222 39.9705L38.4611 40.6499C38.7066 40.8488 39.0328 40.8826 39.3287 40.74L40.3976 40.2247C41.0996 39.8864 41.7811 40.5615 41.5864 41.4023L41.2335 42.9258C41.1588 43.248 41.2139 43.58 41.383 43.8264L42.1585 44.9567C42.6221 45.6325 42.1541 46.6934 41.3764 46.7298L40.4178 46.7746C40.0864 46.7901 39.7729 47.0092 39.5961 47.3489L39.0847 48.3314C38.6699 49.1285 37.6769 49.0886 37.4253 48.2648L37.0044 46.8867C36.9126 46.5862 36.7027 46.3624 36.4348 46.2796L35.1685 45.8878C34.4696 45.6716 34.3273 44.6195 34.9204 44.0528L35.8234 43.1898C36.0734 42.951 36.2123 42.5921 36.1928 42.2353L36.1261 41.0161Z" fill="#7E7E7E"/>
<path d="M36.1261 41.0161C36.0762 40.1023 36.9935 39.4612 37.6222 39.9705L38.4611 40.6499C38.7066 40.8488 39.0328 40.8826 39.3287 40.74L40.3976 40.2247C41.0996 39.8864 41.7811 40.5615 41.5864 41.4023L41.2335 42.9258C41.1588 43.248 41.2139 43.58 41.383 43.8264L42.1585 44.9567C42.6221 45.6325 42.1541 46.6934 41.3764 46.7298L40.4178 46.7746C40.0864 46.7901 39.7729 47.0092 39.5961 47.3489L39.0847 48.3314C38.6699 49.1285 37.6769 49.0886 37.4253 48.2648L37.0044 46.8867C36.9126 46.5862 36.7027 46.3624 36.4348 46.2796L35.1685 45.8878C34.4696 45.6716 34.3273 44.6195 34.9204 44.0528L35.8234 43.1898C36.0734 42.951 36.2123 42.5921 36.1928 42.2353L36.1261 41.0161Z" fill="url(#paint5_linear)"/>
<path d="M29.6044 33.1213C29.5544 32.2075 30.4717 31.5664 31.1005 32.0757L31.9394 32.7552C32.1849 32.954 32.5111 32.9879 32.807 32.8453L33.8759 32.33C34.5778 31.9916 35.2594 32.6668 35.0646 33.5076L34.7117 35.0311C34.6371 35.3533 34.6922 35.6852 34.8613 35.9317L35.6367 37.062C36.1003 37.7377 35.6323 38.7987 34.8547 38.835L33.8961 38.8798C33.5646 38.8953 33.2512 39.1144 33.0743 39.4541L32.563 40.4366C32.1482 41.2338 31.1552 41.1939 30.9035 40.37L30.4826 38.9919C30.3909 38.6914 30.1809 38.4677 29.9131 38.3848L28.6467 37.993C27.9478 37.7768 27.8056 36.7247 28.3986 36.1581L29.3017 35.2951C29.5517 35.0562 29.6906 34.6973 29.6711 34.3405L29.6044 33.1213Z" fill="#7E7E7E"/>
<path d="M29.6044 33.1213C29.5544 32.2075 30.4717 31.5664 31.1005 32.0757L31.9394 32.7552C32.1849 32.954 32.5111 32.9879 32.807 32.8453L33.8759 32.33C34.5778 31.9916 35.2594 32.6668 35.0646 33.5076L34.7117 35.0311C34.6371 35.3533 34.6922 35.6852 34.8613 35.9317L35.6367 37.062C36.1003 37.7377 35.6323 38.7987 34.8547 38.835L33.8961 38.8798C33.5646 38.8953 33.2512 39.1144 33.0743 39.4541L32.563 40.4366C32.1482 41.2338 31.1552 41.1939 30.9035 40.37L30.4826 38.9919C30.3909 38.6914 30.1809 38.4677 29.9131 38.3848L28.6467 37.993C27.9478 37.7768 27.8056 36.7247 28.3986 36.1581L29.3017 35.2951C29.5517 35.0562 29.6906 34.6973 29.6711 34.3405L29.6044 33.1213Z" fill="url(#paint6_linear)"/>
<path d="M40.474 30.4898C40.424 29.576 41.3413 28.9349 41.9701 29.4441L42.809 30.1236C43.0545 30.3225 43.3806 30.3563 43.6765 30.2137L44.7455 29.6984C45.4474 29.3601 46.1289 30.0352 45.9342 30.876L45.5813 32.3995C45.5066 32.7217 45.5618 33.0537 45.7308 33.3001L46.5063 34.4304C46.9699 35.1061 46.5019 36.1671 45.7242 36.2034L44.7657 36.2482C44.4342 36.2637 44.1207 36.4828 43.9439 36.8226L43.4326 37.8051C43.0177 38.6022 42.0247 38.5623 41.7731 37.7384L41.3522 36.3603C41.2604 36.0599 41.0505 35.8361 40.7826 35.7532L39.5163 35.3615C38.8174 35.1452 38.6752 34.0932 39.2682 33.5265L40.1713 32.6635C40.4213 32.4246 40.5601 32.0657 40.5406 31.709L40.474 30.4898Z" fill="#7E7E7E"/>
<path d="M40.474 30.4898C40.424 29.576 41.3413 28.9349 41.9701 29.4441L42.809 30.1236C43.0545 30.3225 43.3806 30.3563 43.6765 30.2137L44.7455 29.6984C45.4474 29.3601 46.1289 30.0352 45.9342 30.876L45.5813 32.3995C45.5066 32.7217 45.5618 33.0537 45.7308 33.3001L46.5063 34.4304C46.9699 35.1061 46.5019 36.1671 45.7242 36.2034L44.7657 36.2482C44.4342 36.2637 44.1207 36.4828 43.9439 36.8226L43.4326 37.8051C43.0177 38.6022 42.0247 38.5623 41.7731 37.7384L41.3522 36.3603C41.2604 36.0599 41.0505 35.8361 40.7826 35.7532L39.5163 35.3615C38.8174 35.1452 38.6752 34.0932 39.2682 33.5265L40.1713 32.6635C40.4213 32.4246 40.5601 32.0657 40.5406 31.709L40.474 30.4898Z" fill="url(#paint7_linear)"/>
<path d="M31.1444 4.56868C31.0817 3.6421 32.0188 2.98716 32.6503 3.51624L37.6507 7.70567C37.8954 7.91072 38.2242 7.94898 38.5233 7.80722L44.1826 5.1255C44.8755 4.79713 45.5481 5.45352 45.3704 6.2847L43.7613 13.8092C43.6942 14.123 43.7496 14.4436 43.9123 14.6839L47.9769 20.6881C48.4397 21.3718 47.9573 22.4362 47.1753 22.4569L41.3182 22.6118C40.9754 22.6208 40.6495 22.8486 40.4716 23.2035L37.4323 29.2662C37.0265 30.0757 36.0238 30.0492 35.7661 29.2222L33.5029 21.959C33.4123 21.6682 33.2106 21.4499 32.9526 21.3634L26.765 19.288C26.0815 19.0587 25.9482 18.0254 26.5296 17.4632L31.2777 12.8712C31.5287 12.6284 31.6657 12.2647 31.6414 11.9056L31.1444 4.56868Z" fill="#7E7E7E"/>
<path d="M31.1444 4.56868C31.0817 3.6421 32.0188 2.98716 32.6503 3.51624L37.6507 7.70567C37.8954 7.91072 38.2242 7.94898 38.5233 7.80722L44.1826 5.1255C44.8755 4.79713 45.5481 5.45352 45.3704 6.2847L43.7613 13.8092C43.6942 14.123 43.7496 14.4436 43.9123 14.6839L47.9769 20.6881C48.4397 21.3718 47.9573 22.4362 47.1753 22.4569L41.3182 22.6118C40.9754 22.6208 40.6495 22.8486 40.4716 23.2035L37.4323 29.2662C37.0265 30.0757 36.0238 30.0492 35.7661 29.2222L33.5029 21.959C33.4123 21.6682 33.2106 21.4499 32.9526 21.3634L26.765 19.288C26.0815 19.0587 25.9482 18.0254 26.5296 17.4632L31.2777 12.8712C31.5287 12.6284 31.6657 12.2647 31.6414 11.9056L31.1444 4.56868Z" fill="url(#paint8_linear)"/>
<defs>
<radialGradient id="paint0_radial" cx="0" cy="0" r="1" gradientUnits="userSpaceOnUse" gradientTransform="translate(25 25) rotate(90) scale(25)">
<stop stop-color="#FFD600"/>
<stop offset="1" stop-color="white" stop-opacity="0"/>
</radialGradient>
<linearGradient id="paint1_linear" x1="25.1801" y1="0" x2="25.1801" y2="1" gradientUnits="userSpaceOnUse">
<stop stop-color="white"/>
<stop offset="1" stop-color="white" stop-opacity="0"/>
</linearGradient>
<linearGradient id="paint2_linear" x1="18.6057" y1="16.2856" x2="25.4052" y2="26.0145" gradientUnits="userSpaceOnUse">
<stop stop-color="white"/>
<stop offset="1" stop-color="white" stop-opacity="0"/>
</linearGradient>
<linearGradient id="paint3_linear" x1="12.084" y1="5.75931" x2="18.8834" y2="15.4882" gradientUnits="userSpaceOnUse">
<stop stop-color="white"/>
<stop offset="1" stop-color="white" stop-opacity="0"/>
</linearGradient>
<linearGradient id="paint4_linear" x1="20.7796" y1="3.12774" x2="27.5791" y2="12.8566" gradientUnits="userSpaceOnUse">
<stop stop-color="white"/>
<stop offset="1" stop-color="white" stop-opacity="0"/>
</linearGradient>
<linearGradient id="paint5_linear" x1="35.997" y1="38.6541" x2="42.7965" y2="48.3829" gradientUnits="userSpaceOnUse">
<stop stop-color="white"/>
<stop offset="1" stop-color="white" stop-opacity="0"/>
</linearGradient>
<linearGradient id="paint6_linear" x1="29.4752" y1="30.7593" x2="36.2747" y2="40.4882" gradientUnits="userSpaceOnUse">
<stop stop-color="white"/>
<stop offset="1" stop-color="white" stop-opacity="0"/>
</linearGradient>
<linearGradient id="paint7_linear" x1="40.3448" y1="28.1277" x2="47.1443" y2="37.8566" gradientUnits="userSpaceOnUse">
<stop stop-color="white"/>
<stop offset="1" stop-color="white" stop-opacity="0"/>
</linearGradient>
<linearGradient id="paint8_linear" x1="30.9783" y1="2.11539" x2="48.0998" y2="26.6134" gradientUnits="userSpaceOnUse">
<stop stop-color="white"/>
<stop offset="1" stop-color="white" stop-opacity="0"/>
</linearGradient>
</defs>
</svg>
