<svg width="75" height="77" viewBox="0 0 75 77" fill="none" xmlns="http://www.w3.org/2000/svg">
<g filter="url(#filter0_i)">
<rect width="75" height="75" fill="url(#paint0_radial)"/>
<line y1="-1" x2="75.5402" y2="-1" transform="matrix(-0.733845 0.679317 -0.534074 -0.845438 55.4348 23.6842)" stroke="#7E7E7E" stroke-width="2"/>
<line y1="-1" x2="75.5402" y2="-1" transform="matrix(-0.733845 0.679317 -0.534074 -0.845438 55.4348 23.6842)" stroke="url(#paint1_linear)" stroke-width="2"/>
<path d="M28.0377 26.7905C27.9877 25.8767 28.905 25.2356 29.5338 25.7449L31.8015 27.5817C32.047 27.7805 32.3732 27.8143 32.6691 27.6717L35.3321 26.388C36.034 26.0497 36.7156 26.7248 36.5208 27.5656L35.7041 31.0913C35.6295 31.4135 35.6846 31.7455 35.8537 31.9919L37.7279 34.7238C38.1915 35.3995 37.7235 36.4605 36.9458 36.4968L34.2719 36.6218C33.9404 36.6373 33.6269 36.8564 33.4501 37.1961L32.0237 39.9369C31.6089 40.734 30.6159 40.6941 30.3642 39.8702L29.3469 36.5395C29.2552 36.239 29.0452 36.0152 28.7774 35.9324L25.8467 35.0257C25.1478 34.8095 25.0056 33.7574 25.5986 33.1907L27.8485 31.0408C28.0985 30.8019 28.2374 30.443 28.2179 30.0862L28.0377 26.7905Z" fill="#7E7E7E"/>
<path d="M28.0377 26.7905C27.9877 25.8767 28.905 25.2356 29.5338 25.7449L31.8015 27.5817C32.047 27.7805 32.3732 27.8143 32.6691 27.6717L35.3321 26.388C36.034 26.0497 36.7156 26.7248 36.5208 27.5656L35.7041 31.0913C35.6295 31.4135 35.6846 31.7455 35.8537 31.9919L37.7279 34.7238C38.1915 35.3995 37.7235 36.4605 36.9458 36.4968L34.2719 36.6218C33.9404 36.6373 33.6269 36.8564 33.4501 37.1961L32.0237 39.9369C31.6089 40.734 30.6159 40.6941 30.3642 39.8702L29.3469 36.5395C29.2552 36.239 29.0452 36.0152 28.7774 35.9324L25.8467 35.0257C25.1478 34.8095 25.0056 33.7574 25.5986 33.1907L27.8485 31.0408C28.0985 30.8019 28.2374 30.443 28.2179 30.0862L28.0377 26.7905Z" fill="url(#paint2_linear)"/>
<path d="M18.2551 11.001C18.2051 10.0872 19.1224 9.44608 19.7512 9.95536L22.0189 11.7921C22.2644 11.9909 22.5906 12.0248 22.8865 11.8822L25.5495 10.5985C26.2515 10.2601 26.933 10.9353 26.7382 11.776L25.9215 15.3017C25.8469 15.624 25.902 15.9559 26.0711 16.2024L27.9453 18.9342C28.4089 19.61 27.9409 20.6709 27.1633 20.7073L24.4893 20.8322C24.1578 20.8477 23.8443 21.0668 23.6675 21.4066L22.2411 24.1473C21.8263 24.9444 20.8333 24.9046 20.5816 24.0807L19.5643 20.7499C19.4726 20.4495 19.2627 20.2257 18.9948 20.1428L16.0641 19.2362C15.3652 19.0199 15.223 17.9679 15.816 17.4012L18.0659 15.2512C18.3159 15.0123 18.4548 14.6534 18.4353 14.2967L18.2551 11.001Z" fill="#7E7E7E"/>
<path d="M18.2551 11.001C18.2051 10.0872 19.1224 9.44608 19.7512 9.95536L22.0189 11.7921C22.2644 11.9909 22.5906 12.0248 22.8865 11.8822L25.5495 10.5985C26.2515 10.2601 26.933 10.9353 26.7382 11.776L25.9215 15.3017C25.8469 15.624 25.902 15.9559 26.0711 16.2024L27.9453 18.9342C28.4089 19.61 27.9409 20.6709 27.1633 20.7073L24.4893 20.8322C24.1578 20.8477 23.8443 21.0668 23.6675 21.4066L22.2411 24.1473C21.8263 24.9444 20.8333 24.9046 20.5816 24.0807L19.5643 20.7499C19.4726 20.4495 19.2627 20.2257 18.9948 20.1428L16.0641 19.2362C15.3652 19.0199 15.223 17.9679 15.816 17.4012L18.0659 15.2512C18.3159 15.0123 18.4548 14.6534 18.4353 14.2967L18.2551 11.001Z" fill="url(#paint3_linear)"/>
<path d="M31.2986 7.05359C31.2486 6.13979 32.1659 5.49869 32.7947 6.00797L35.0623 7.84472C35.3078 8.04355 35.634 8.07741 35.9299 7.93478L38.593 6.65108C39.2949 6.31272 39.9765 6.98787 39.7817 7.82866L38.965 11.3544C38.8904 11.6766 38.9455 12.0085 39.1146 12.255L40.9888 14.9868C41.4524 15.6626 40.9844 16.7235 40.2067 16.7599L37.5327 16.8849C37.2013 16.9003 36.8878 17.1194 36.711 17.4592L35.2846 20.1999C34.8697 20.997 33.8767 20.9572 33.6251 20.1333L32.6078 16.8025C32.516 16.5021 32.3061 16.2783 32.0383 16.1954L29.1076 15.2888C28.4087 15.0725 28.2665 14.0205 28.8595 13.4538L31.1094 11.3038C31.3594 11.0649 31.4983 10.706 31.4787 10.3493L31.2986 7.05359Z" fill="#7E7E7E"/>
<path d="M31.2986 7.05359C31.2486 6.13979 32.1659 5.49869 32.7947 6.00797L35.0623 7.84472C35.3078 8.04355 35.634 8.07741 35.9299 7.93478L38.593 6.65108C39.2949 6.31272 39.9765 6.98787 39.7817 7.82866L38.965 11.3544C38.8904 11.6766 38.9455 12.0085 39.1146 12.255L40.9888 14.9868C41.4524 15.6626 40.9844 16.7235 40.2067 16.7599L37.5327 16.8849C37.2013 16.9003 36.8878 17.1194 36.711 17.4592L35.2846 20.1999C34.8697 20.997 33.8767 20.9572 33.6251 20.1333L32.6078 16.8025C32.516 16.5021 32.3061 16.2783 32.0383 16.1954L29.1076 15.2888C28.4087 15.0725 28.2665 14.0205 28.8595 13.4538L31.1094 11.3038C31.3594 11.0649 31.4983 10.706 31.4787 10.3493L31.2986 7.05359Z" fill="url(#paint4_linear)"/>
<path d="M54.1246 60.3431C54.0746 59.4293 54.992 58.7882 55.6207 59.2975L57.8884 61.1342C58.1339 61.333 58.4601 61.3669 58.756 61.2243L61.419 59.9406C62.121 59.6022 62.8025 60.2774 62.6077 61.1181L61.7911 64.6439C61.7164 64.9661 61.7715 65.298 61.9406 65.5445L63.8148 68.2763C64.2784 68.9521 63.8104 70.013 63.0328 70.0494L60.3588 70.1743C60.0273 70.1898 59.7138 70.4089 59.537 70.7487L58.1106 73.4894C57.6958 74.2865 56.7028 74.2467 56.4512 73.4228L55.4339 70.092C55.3421 69.7916 55.1322 69.5678 54.8643 69.4849L51.9336 68.5783C51.2347 68.362 51.0925 67.31 51.6855 66.7433L53.9354 64.5933C54.1854 64.3544 54.3243 63.9955 54.3048 63.6388L54.1246 60.3431Z" fill="#7E7E7E"/>
<path d="M54.1246 60.3431C54.0746 59.4293 54.992 58.7882 55.6207 59.2975L57.8884 61.1342C58.1339 61.333 58.4601 61.3669 58.756 61.2243L61.419 59.9406C62.121 59.6022 62.8025 60.2774 62.6077 61.1181L61.7911 64.6439C61.7164 64.9661 61.7715 65.298 61.9406 65.5445L63.8148 68.2763C64.2784 68.9521 63.8104 70.013 63.0328 70.0494L60.3588 70.1743C60.0273 70.1898 59.7138 70.4089 59.537 70.7487L58.1106 73.4894C57.6958 74.2865 56.7028 74.2467 56.4512 73.4228L55.4339 70.092C55.3421 69.7916 55.1322 69.5678 54.8643 69.4849L51.9336 68.5783C51.2347 68.362 51.0925 67.31 51.6855 66.7433L53.9354 64.5933C54.1854 64.3544 54.3243 63.9955 54.3048 63.6388L54.1246 60.3431Z" fill="url(#paint5_linear)"/>
<path d="M44.342 48.501C44.2921 47.5872 45.2094 46.9461 45.8381 47.4554L48.1058 49.2921C48.3513 49.4909 48.6775 49.5248 48.9734 49.3822L51.6364 48.0985C52.3384 47.7601 53.0199 48.4353 52.8252 49.276L52.0085 52.8017C51.9338 53.124 51.9889 53.4559 52.158 53.7024L54.0322 56.4342C54.4958 57.11 54.0279 58.1709 53.2502 58.2073L50.5762 58.3322C50.2447 58.3477 49.9313 58.5668 49.7544 58.9066L48.328 61.6473C47.9132 62.4444 46.9202 62.4046 46.6686 61.5807L45.6513 58.2499C45.5595 57.9495 45.3496 57.7257 45.0817 57.6428L42.151 56.7362C41.4522 56.5199 41.3099 55.4679 41.903 54.9012L44.1529 52.7512C44.4028 52.5123 44.5417 52.1534 44.5222 51.7967L44.342 48.501Z" fill="#7E7E7E"/>
<path d="M44.342 48.501C44.2921 47.5872 45.2094 46.9461 45.8381 47.4554L48.1058 49.2921C48.3513 49.4909 48.6775 49.5248 48.9734 49.3822L51.6364 48.0985C52.3384 47.7601 53.0199 48.4353 52.8252 49.276L52.0085 52.8017C51.9338 53.124 51.9889 53.4559 52.158 53.7024L54.0322 56.4342C54.4958 57.11 54.0279 58.1709 53.2502 58.2073L50.5762 58.3322C50.2447 58.3477 49.9313 58.5668 49.7544 58.9066L48.328 61.6473C47.9132 62.4444 46.9202 62.4046 46.6686 61.5807L45.6513 58.2499C45.5595 57.9495 45.3496 57.7257 45.0817 57.6428L42.151 56.7362C41.4522 56.5199 41.3099 55.4679 41.903 54.9012L44.1529 52.7512C44.4028 52.5123 44.5417 52.1534 44.5222 51.7967L44.342 48.501Z" fill="url(#paint6_linear)"/>
<path d="M60.6463 44.5537C60.5964 43.6399 61.5137 42.9988 62.1424 43.508L64.4101 45.3448C64.6556 45.5436 64.9818 45.5775 65.2777 45.4348L67.9407 44.1511C68.6427 43.8128 69.3242 44.4879 69.1295 45.3287L68.3128 48.8544C68.2381 49.1767 68.2933 49.5086 68.4623 49.755L70.3366 52.4869C70.8001 53.1626 70.3322 54.2236 69.5545 54.2599L66.8805 54.3849C66.5491 54.4004 66.2356 54.6195 66.0588 54.9592L64.6324 57.7C64.2175 58.4971 63.2245 58.4572 62.9729 57.6334L61.9556 54.3026C61.8638 54.0021 61.6539 53.7784 61.386 53.6955L58.4554 52.7888C57.7565 52.5726 57.6142 51.5205 58.2073 50.9538L60.4572 48.8039C60.7072 48.565 60.846 48.2061 60.8265 47.8493L60.6463 44.5537Z" fill="#7E7E7E"/>
<path d="M60.6463 44.5537C60.5964 43.6399 61.5137 42.9988 62.1424 43.508L64.4101 45.3448C64.6556 45.5436 64.9818 45.5775 65.2777 45.4348L67.9407 44.1511C68.6427 43.8128 69.3242 44.4879 69.1295 45.3287L68.3128 48.8544C68.2381 49.1767 68.2933 49.5086 68.4623 49.755L70.3366 52.4869C70.8001 53.1626 70.3322 54.2236 69.5545 54.2599L66.8805 54.3849C66.5491 54.4004 66.2356 54.6195 66.0588 54.9592L64.6324 57.7C64.2175 58.4971 63.2245 58.4572 62.9729 57.6334L61.9556 54.3026C61.8638 54.0021 61.6539 53.7784 61.386 53.6955L58.4554 52.7888C57.7565 52.5726 57.6142 51.5205 58.2073 50.9538L60.4572 48.8039C60.7072 48.565 60.846 48.2061 60.8265 47.8493L60.6463 44.5537Z" fill="url(#paint7_linear)"/>
<path d="M46.6335 5.62633C46.5708 4.69975 47.5079 4.04481 48.1394 4.57389L56.6723 11.723C56.9171 11.928 57.2459 11.9663 57.545 11.8245L67.0726 7.30968C67.7656 6.98131 68.4382 7.63771 68.2604 8.46889L65.589 20.9614C65.5219 21.2752 65.5772 21.5958 65.7399 21.8361L72.5464 31.8906C73.0092 32.5742 72.5268 33.6387 71.7448 33.6594L61.6986 33.925C61.3558 33.9341 61.0299 34.1618 60.852 34.5167L55.6389 44.9157C55.2331 45.7252 54.2304 45.6987 53.9727 44.8717L50.1829 32.7089C50.0923 32.4182 49.8905 32.1999 49.6325 32.1133L39.3595 28.6677C38.676 28.4384 38.5427 27.4051 39.1241 26.8428L47.1179 19.112C47.3689 18.8693 47.5059 18.5055 47.4816 18.1464L46.6335 5.62633Z" fill="#7E7E7E"/>
<path d="M46.6335 5.62633C46.5708 4.69975 47.5079 4.04481 48.1394 4.57389L56.6723 11.723C56.9171 11.928 57.2459 11.9663 57.545 11.8245L67.0726 7.30968C67.7656 6.98131 68.4382 7.63771 68.2604 8.46889L65.589 20.9614C65.5219 21.2752 65.5772 21.5958 65.7399 21.8361L72.5464 31.8906C73.0092 32.5742 72.5268 33.6387 71.7448 33.6594L61.6986 33.925C61.3558 33.9341 61.0299 34.1618 60.852 34.5167L55.6389 44.9157C55.2331 45.7252 54.2304 45.6987 53.9727 44.8717L50.1829 32.7089C50.0923 32.4182 49.8905 32.1999 49.6325 32.1133L39.3595 28.6677C38.676 28.4384 38.5427 27.4051 39.1241 26.8428L47.1179 19.112C47.3689 18.8693 47.5059 18.5055 47.4816 18.1464L46.6335 5.62633Z" fill="url(#paint8_linear)"/>
</g>
<defs>
<filter id="filter0_i" x="0" y="0" width="75" height="79" filterUnits="userSpaceOnUse" color-interpolation-filters="sRGB">
<feFlood flood-opacity="0" result="BackgroundImageFix"/>
<feBlend mode="normal" in="SourceGraphic" in2="BackgroundImageFix" result="shape"/>
<feColorMatrix in="SourceAlpha" type="matrix" values="0 0 0 0 0 0 0 0 0 0 0 0 0 0 0 0 0 0 127 0" result="hardAlpha"/>
<feOffset dy="4"/>
<feGaussianBlur stdDeviation="2"/>
<feComposite in2="hardAlpha" operator="arithmetic" k2="-1" k3="1"/>
<feColorMatrix type="matrix" values="0 0 0 0 0 0 0 0 0 0 0 0 0 0 0 0 0 0 0.25 0"/>
<feBlend mode="normal" in2="shape" result="effect1_innerShadow"/>
</filter>
<radialGradient id="paint0_radial" cx="0" cy="0" r="1" gradientUnits="userSpaceOnUse" gradientTransform="translate(37.5 37.5) rotate(90) scale(37.5)">
<stop stop-color="#FFD600"/>
<stop offset="1" stop-color="white" stop-opacity="0"/>
</radialGradient>
<linearGradient id="paint1_linear" x1="37.7701" y1="0" x2="37.7701" y2="1" gradientUnits="userSpaceOnUse">
<stop stop-color="white"/>
<stop offset="1" stop-color="white" stop-opacity="0"/>
</linearGradient>
<linearGradient id="paint2_linear" x1="27.9086" y1="24.4285" x2="38.1078" y2="39.0218" gradientUnits="userSpaceOnUse">
<stop stop-color="white"/>
<stop offset="1" stop-color="white" stop-opacity="0"/>
</linearGradient>
<linearGradient id="paint3_linear" x1="18.126" y1="8.63896" x2="28.3252" y2="23.2322" gradientUnits="userSpaceOnUse">
<stop stop-color="white"/>
<stop offset="1" stop-color="white" stop-opacity="0"/>
</linearGradient>
<linearGradient id="paint4_linear" x1="31.1694" y1="4.69157" x2="41.3686" y2="19.2849" gradientUnits="userSpaceOnUse">
<stop stop-color="white"/>
<stop offset="1" stop-color="white" stop-opacity="0"/>
</linearGradient>
<linearGradient id="paint5_linear" x1="53.9955" y1="57.9811" x2="64.1947" y2="72.5743" gradientUnits="userSpaceOnUse">
<stop stop-color="white"/>
<stop offset="1" stop-color="white" stop-opacity="0"/>
</linearGradient>
<linearGradient id="paint6_linear" x1="44.2129" y1="46.139" x2="54.4121" y2="60.7322" gradientUnits="userSpaceOnUse">
<stop stop-color="white"/>
<stop offset="1" stop-color="white" stop-opacity="0"/>
</linearGradient>
<linearGradient id="paint7_linear" x1="60.5172" y1="42.1916" x2="70.7164" y2="56.7849" gradientUnits="userSpaceOnUse">
<stop stop-color="white"/>
<stop offset="1" stop-color="white" stop-opacity="0"/>
</linearGradient>
<linearGradient id="paint8_linear" x1="46.4673" y1="3.17304" x2="72.1497" y2="39.92" gradientUnits="userSpaceOnUse">
<stop stop-color="white"/>
<stop offset="1" stop-color="white" stop-opacity="0"/>
</linearGradient>
</defs>
</svg>
